<svg width="706" height="180" viewBox="0 0 706 180" fill="none" xmlns="http://www.w3.org/2000/svg">
<path d="M62.2681 20.51C33.8879 24.463 11.4878 44.3291 3.88596 72.2026C1.1493 82.237 1.45337 98.961 4.39275 108.691C12.1973 134.031 30.0363 151.464 54.6663 157.85C62.6735 159.877 79.9044 159.877 88.013 157.749C106.866 152.883 124.198 138.896 133.016 121.361C136.868 113.658 139.401 103.319 140.01 92.6769L140.618 82.3383H136.665C134.536 82.3383 131.09 82.6424 129.164 82.9465L125.515 83.5546V90.2443C125.414 105.043 120.143 117.712 109.4 128.456C98.3515 139.606 85.3777 145.079 70.3767 145.18C47.0644 145.282 24.2589 127.24 18.1774 104.13C16.2516 96.4271 16.2516 83.4533 18.1774 75.7501C21.8263 62.0668 33.2798 47.4712 45.6454 40.9843C59.2274 33.8893 76.7623 32.7743 89.6347 38.1463C93.2836 39.6667 96.8312 40.9843 97.5407 41.0857C98.2502 41.187 100.379 38.4504 102.304 35.1056L105.852 28.9227L99.9732 26.2874C88.6212 21.2195 73.6202 18.8883 62.2681 20.51Z" fill="#5D5AFF"/>
<path d="M111.123 53.6542L78.5871 86.8996L65.4106 73.723L52.1327 60.5465L46.3553 66.4253L40.4766 72.2027L59.2278 90.9539C69.5663 101.292 78.2831 109.604 78.6885 109.502C79.0939 109.3 96.6288 91.7647 117.61 70.3782L155.822 31.5582L150.349 25.9835C147.409 22.9427 144.672 20.5101 144.267 20.5101C143.862 20.5101 128.962 35.4098 111.123 53.6542Z" fill="#5D5AFF"/>
<path d="M260.272 103.396V136H243.112V103.66L206.812 43.6H225.16L252.22 88.612L279.544 43.6H296.44L260.272 103.396ZM329.91 136.924C322.782 136.924 316.358 135.384 310.638 132.304C304.918 129.224 300.43 124.956 297.174 119.5C294.006 113.956 292.422 107.708 292.422 100.756C292.422 93.804 294.006 87.6 297.174 82.144C300.43 76.688 304.918 72.42 310.638 69.34C316.358 66.26 322.782 64.72 329.91 64.72C337.126 64.72 343.594 66.26 349.314 69.34C355.034 72.42 359.478 76.688 362.646 82.144C365.902 87.6 367.53 93.804 367.53 100.756C367.53 107.708 365.902 113.956 362.646 119.5C359.478 124.956 355.034 129.224 349.314 132.304C343.594 135.384 337.126 136.924 329.91 136.924ZM329.91 122.8C335.982 122.8 340.998 120.776 344.958 116.728C348.918 112.68 350.898 107.356 350.898 100.756C350.898 94.156 348.918 88.832 344.958 84.784C340.998 80.736 335.982 78.712 329.91 78.712C323.838 78.712 318.822 80.736 314.862 84.784C310.99 88.832 309.054 94.156 309.054 100.756C309.054 107.356 310.99 112.68 314.862 116.728C318.822 120.776 323.838 122.8 329.91 122.8ZM451.552 65.512V136H435.844V127.024C433.204 130.192 429.904 132.656 425.944 134.416C421.984 136.088 417.716 136.924 413.14 136.924C403.724 136.924 396.288 134.328 390.832 129.136C385.464 123.856 382.78 116.068 382.78 105.772V65.512H399.28V103.528C399.28 109.864 400.688 114.616 403.504 117.784C406.408 120.864 410.5 122.404 415.78 122.404C421.676 122.404 426.34 120.6 429.772 116.992C433.292 113.296 435.052 108.016 435.052 101.152V65.512H451.552ZM501.837 137.32C494.709 137.32 487.801 136.308 481.113 134.284C474.513 132.26 469.277 129.576 465.405 126.232L471.345 112.9C475.129 115.892 479.749 118.356 485.205 120.292C490.749 122.14 496.293 123.064 501.837 123.064C508.701 123.064 513.805 121.964 517.149 119.764C520.581 117.564 522.297 114.66 522.297 111.052C522.297 108.412 521.329 106.256 519.393 104.584C517.545 102.824 515.169 101.46 512.265 100.492C509.361 99.524 505.401 98.424 500.385 97.192C493.345 95.52 487.625 93.848 483.225 92.176C478.913 90.504 475.173 87.908 472.005 84.388C468.925 80.78 467.385 75.94 467.385 69.868C467.385 64.764 468.749 60.144 471.477 56.008C474.293 51.784 478.473 48.44 484.017 45.976C489.649 43.512 496.513 42.28 504.609 42.28C510.241 42.28 515.785 42.984 521.241 44.392C526.697 45.8 531.405 47.824 535.365 50.464L529.953 63.796C525.905 61.42 521.681 59.616 517.281 58.384C512.881 57.152 508.613 56.536 504.477 56.536C497.701 56.536 492.641 57.68 489.297 59.968C486.041 62.256 484.413 65.292 484.413 69.076C484.413 71.716 485.337 73.872 487.185 75.544C489.121 77.216 491.541 78.536 494.445 79.504C497.349 80.472 501.309 81.572 506.325 82.804C513.189 84.388 518.821 86.06 523.221 87.82C527.621 89.492 531.361 92.088 534.441 95.608C537.609 99.128 539.193 103.88 539.193 109.864C539.193 114.968 537.785 119.588 534.969 123.724C532.241 127.86 528.061 131.16 522.429 133.624C516.797 136.088 509.933 137.32 501.837 137.32ZM620.889 101.152C620.889 102.296 620.801 103.924 620.625 106.036H565.317C566.285 111.228 568.793 115.364 572.841 118.444C576.977 121.436 582.081 122.932 588.153 122.932C595.897 122.932 602.277 120.38 607.293 115.276L616.137 125.44C612.969 129.224 608.965 132.084 604.125 134.02C599.285 135.956 593.829 136.924 587.757 136.924C580.013 136.924 573.193 135.384 567.297 132.304C561.401 129.224 556.825 124.956 553.569 119.5C550.401 113.956 548.817 107.708 548.817 100.756C548.817 93.892 550.357 87.732 553.437 82.276C556.605 76.732 560.961 72.42 566.505 69.34C572.049 66.26 578.297 64.72 585.249 64.72C592.113 64.72 598.229 66.26 603.597 69.34C609.053 72.332 613.277 76.6 616.269 82.144C619.349 87.6 620.889 93.936 620.889 101.152ZM585.249 77.92C579.969 77.92 575.481 79.504 571.785 82.672C568.177 85.752 565.977 89.888 565.185 95.08H605.181C604.477 89.976 602.321 85.84 598.713 82.672C595.105 79.504 590.617 77.92 585.249 77.92ZM679.11 132.172C677.174 133.756 674.798 134.944 671.982 135.736C669.254 136.528 666.35 136.924 663.27 136.924C655.526 136.924 649.542 134.9 645.318 130.852C641.094 126.804 638.982 120.908 638.982 113.164V79.24H627.366V66.04H638.982V49.936H655.482V66.04H674.358V79.24H655.482V112.768C655.482 116.2 656.318 118.84 657.99 120.688C659.662 122.448 662.082 123.328 665.25 123.328C668.946 123.328 672.026 122.36 674.49 120.424L679.11 132.172Z" fill="#5D5AFF"/>
</svg>
