<svg width="1706" height="1533" viewBox="0 0 1706 1533" fill="none" xmlns="http://www.w3.org/2000/svg">
<path fill-rule="evenodd" clip-rule="evenodd" d="M1576.49 0L1705.51 128.461L973.016 864.148L849.687 989.014L428.431 572.942L556.373 443.406L848.111 731.554L1576.49 0ZM766 1533C1189.05 1533 1532 1190.05 1532 767C1532 736.434 1530.21 706.285 1526.73 676.654L1360.42 692.566C1363.44 716.953 1365 741.795 1365 767C1365 1097.82 1096.82 1366 766 1366C435.181 1366 167 1097.82 167 767C167 436.182 435.181 168 766 168C875.894 168 978.876 197.594 1067.41 249.246L1150.59 104.398C1037.56 38.6533 906.178 1 766 1C342.95 1 0 343.95 0 767C0 1190.05 342.95 1533 766 1533Z" fill="#5D5AFF"/>
</svg>
